<svg fill="#d5d5ff" version="1.1" id="Layer_1" xmlns="http://www.w3.org/2000/svg" xmlns:xlink="http://www.w3.org/1999/xlink" x="0px" y="0px" viewBox="0 0 56 56" style="enable-background:new 0 0 56 56;" xml:space="preserve">
<rect width="56" height="56" rx="28" fill="inherit"/>
<path d="M13.5575 17.3096L26.4425 12.3207C27.4336 11.8931 28.5664 11.8931 29.5575 12.3207L42.4425 17.4521C43.4336 17.8797 44 18.735 44 19.8753V36.4098C44 37.4076 43.4336 38.4053 42.4425 38.833L29.5575 43.6793C28.5664 44.1069 27.4336 44.1069 26.4425 43.6793L13.5575 38.5479C12.5664 38.1203 12 37.265 12 36.1247V19.7327C12 18.735 12.708 17.7372 13.5575 17.3096Z" fill="white" stroke="#191919" stroke-width="2" stroke-linecap="round" stroke-linejoin="round"/>
<path d="M28 24.294L12.5664 18.1648" stroke="#191919" stroke-width="2" stroke-linecap="round" stroke-linejoin="round"/>
<path d="M28 24.294L43.4336 18.1648" stroke="#191919" stroke-width="2" stroke-linecap="round" stroke-linejoin="round"/>
<path d="M28 43.9643V24.2939" stroke="#191919" stroke-width="2" stroke-linecap="round" stroke-linejoin="round"/>
</svg>
