<svg fill="#ffd6b0" version="1.1" id="Layer_1" xmlns="http://www.w3.org/2000/svg" xmlns:xlink="http://www.w3.org/1999/xlink" x="0px" y="0px" viewBox="0 0 56 56" style="enable-background:new 0 0 56 56;" xml:space="preserve">
<rect width="56" height="56" rx="28" fill="inherit"/>
<path d="M27.2511 12.4384L18.6301 24.1279C16.8767 26.4658 16 29.242 16 32.0183C16 38.7397 21.4064 44 27.9817 44C34.7032 44 39.9635 38.5936 39.9635 32.0183C39.9635 29.242 39.0868 26.4658 37.3333 24.1279L28.7123 12.4384C28.8584 12.1461 28.4201 12 28.1279 12C27.8356 12 27.3973 12.1461 27.2511 12.4384Z" fill="white" stroke="#191919" stroke-width="2" stroke-linecap="round" stroke-linejoin="round"/>
<path d="M37 40H29Z" fill="white"/>
<path d="M37 40H29" stroke="#191919" stroke-width="2" stroke-linecap="round" stroke-linejoin="round"/>
<path d="M39 33H29Z" fill="white"/>
<path d="M39 33H29" stroke="#191919" stroke-width="2" stroke-linecap="round" stroke-linejoin="round"/>
<path d="M38 26H29Z" fill="white"/>
<path d="M38 26H29" stroke="#191919" stroke-width="2" stroke-linecap="round" stroke-linejoin="round"/>
<path d="M34 20H29Z" fill="white"/>
<path d="M34 20H29" stroke="#191919" stroke-width="2" stroke-linecap="round" stroke-linejoin="round"/>
</svg>
