<svg fill="#beebf6" version="1.1" id="Layer_1" xmlns="http://www.w3.org/2000/svg" xmlns:xlink="http://www.w3.org/1999/xlink" x="0px" y="0px" viewBox="0 0 56 56" style="enable-background:new 0 0 56 56;" xml:space="preserve">
<rect width="56" height="56" rx="28" fill="inherit"/>
<path d="M23.0345 39.5421H42.8966C43.5447 35.6871 43.9134 31.7936 44 27.8897C43.9134 23.9857 43.5447 20.0922 42.8966 16.2373H23.0345C22.3863 20.0922 22.0176 23.9857 21.931 27.8897C22.0176 31.7936 22.3863 35.6871 23.0345 39.5421Z" fill="white"/>
<path d="M23.0345 16.2373H42.8966L43.5719 14.4746C43.6813 13.858 43.5014 13.2265 43.0803 12.7493C42.6592 12.272 42.04 11.9978 41.3885 12H24.5366C23.8862 11.9995 23.2686 12.2744 22.8488 12.7515C22.4291 13.2285 22.2499 13.859 22.3592 14.4746L23.0345 16.2373Z" fill="white"/>
<path d="M42.8966 39.5421H23.0345L22.3592 41.3104C22.2518 41.9251 22.4319 42.554 22.8514 43.0297C23.271 43.5054 23.8874 43.7796 24.5366 43.7793H41.3944C42.043 43.7794 42.6589 43.5056 43.0783 43.0306C43.4977 42.5556 43.6782 41.9275 43.5719 41.3132L42.8966 39.5421Z" fill="white"/>
<path d="M23.0345 39.5421H42.8966M23.0345 39.5421L22.3592 41.3104C22.2518 41.9251 22.4319 42.554 22.8514 43.0297C23.271 43.5054 23.8874 43.7796 24.5366 43.7793H41.3944C42.043 43.7794 42.6589 43.5056 43.0783 43.0306C43.4977 42.5556 43.6782 41.9275 43.5719 41.3132L42.8966 39.5421M23.0345 39.5421C22.3863 35.6871 22.0176 31.7936 21.931 27.8897C22.0176 23.9857 22.3863 20.0922 23.0345 16.2373M42.8966 39.5421C43.5447 35.6871 43.9134 31.7936 44 27.8897C43.9134 23.9857 43.5447 20.0922 42.8966 16.2373M23.0345 16.2373H42.8966M23.0345 16.2373L22.3592 14.4746C22.2499 13.859 22.4291 13.2285 22.8488 12.7515C23.2686 12.2744 23.8862 11.9995 24.5366 12H41.3885C42.04 11.9978 42.6592 12.272 43.0803 12.7493C43.5014 13.2265 43.6813 13.858 43.5719 14.4746L42.8966 16.2373M20 43.7793H15.3103C13.4821 43.7793 12 42.3565 12 40.6014C12 38.8463 13.4821 37.4235 15.3103 37.4235M15.3103 37.4235H20M15.3103 37.4235C13.4821 37.4235 12 36.0007 12 34.2455C12 32.4904 13.4821 31.0676 15.3103 31.0676M15.3103 31.0676H18.8966M15.3103 31.0676C13.4821 31.0676 12 29.6448 12 27.8897C12 26.1345 13.4821 24.7117 15.3103 24.7117H20" stroke="black" stroke-width="2" stroke-linecap="round" stroke-linejoin="round"/>
</svg>
