<svg fill="#d2fae6" version="1.1" id="Layer_1" xmlns="http://www.w3.org/2000/svg" xmlns:xlink="http://www.w3.org/1999/xlink" x="0px" y="0px" viewBox="0 0 56 56" style="enable-background:new 0 0 56 56;" xml:space="preserve">
<rect width="56" height="56" rx="28" fill="inherit"/>
<path d="M12.1401 14.1101C12.1401 12.9847 13.1204 12 14.2409 12H41.5514C42.6718 12 43.6522 12.9847 43.6522 14.1101V41.542C43.6522 42.6674 42.6718 43.6522 41.5514 43.6522H14.1008C12.9804 43.6522 12 42.6674 12 41.542V14.1101H12.1401Z" fill="white" stroke="#191919" stroke-width="2" stroke-linecap="round" stroke-linejoin="round"/>
<path d="M24.6 33.2301C24.2 33.3717 23.8 33.3717 23.5333 33.2301C23.1333 32.9469 23 32.6637 23 32.2389V24.0265C23 23.6018 23.2667 23.177 23.5333 23.0354C23.8 22.7522 24.2 22.7522 24.6 22.8938L32.3333 27C32.7333 27.1416 33 27.5664 33 28.1327C33 28.5575 32.7333 28.9823 32.3333 29.2655L24.6 33.2301Z" fill="white" stroke="#191919" stroke-width="2" stroke-linecap="round" stroke-linejoin="round"/>
</svg>
