<svg fill="#d5d5ff" version="1.1" id="Layer_1" xmlns="http://www.w3.org/2000/svg" xmlns:xlink="http://www.w3.org/1999/xlink" x="0px" y="0px" viewBox="0 0 56 56" style="enable-background:new 0 0 56 56;" xml:space="preserve">
<rect width="56" height="56" rx="28" fill="inherit"/>
<path d="M29.3032 18.4796C31.5861 18.4796 33.543 16.5228 33.543 14.2398C33.543 11.9568 31.5861 10 29.3032 10C27.0202 10 25.0634 11.9568 25.0634 14.2398C24.9003 16.5228 26.8571 18.4796 29.3032 18.4796Z" fill="white" stroke="#191919" stroke-width="2" stroke-linecap="round" stroke-linejoin="round"/>
<path d="M41.8595 17.3381C41.2072 17.1751 40.555 17.3381 40.0658 17.6643C39.5765 17.9904 39.0873 18.6427 39.0873 19.295C38.5981 21.4149 36.6413 22.8825 34.5214 22.5564L21.1497 20.5995C17.0729 19.9473 13.1593 22.5564 12.1809 26.47C12.0178 27.1223 12.1809 27.7746 12.507 28.2638C12.8331 28.753 13.3223 29.2422 13.9746 29.4053C14.1377 29.4053 14.3008 29.4053 14.6269 29.4053C15.7684 29.4053 16.7468 28.5899 16.9099 27.6115C17.236 25.9808 18.8667 25.0024 20.3343 25.3286L23.4327 25.8178L21.3127 32.9928C21.1497 33.9712 20.3343 34.7866 19.3559 34.7866L14.1377 35.6019C12.8331 35.765 11.8547 37.0696 12.0178 38.3741C12.1809 39.6787 13.4854 40.6571 14.79 40.494L20.1713 39.6787C22.7804 39.3525 24.9003 37.5588 25.8787 35.2758L27.0202 35.6019C28.1617 35.9281 28.977 37.0696 28.8139 38.2111L28.1617 43.9185C27.9986 44.7338 28.3247 45.7123 29.1401 46.2015C29.7924 46.6907 30.7708 46.8537 31.5861 46.5276C32.4015 46.2015 32.8907 45.3861 33.0538 44.5708L33.706 39.0264C34.1952 35.4389 31.9123 32.0144 28.4878 31.036L27.5094 30.7099L28.6509 26.6331L33.8691 27.4485C38.5981 28.2638 43.1641 25.0024 43.9794 20.4365C44.1425 18.8058 43.3271 17.5012 41.8595 17.3381Z" fill="white" stroke="#191919" stroke-width="2" stroke-linecap="round" stroke-linejoin="round"/>
</svg>
