<svg fill="#fff48a" version="1.1" id="Layer_1" xmlns="http://www.w3.org/2000/svg" xmlns:xlink="http://www.w3.org/1999/xlink" x="0px" y="0px" viewBox="0 0 56 56" style="enable-background:new 0 0 56 56;" xml:space="preserve">
<rect width="56" height="56" rx="28" fill="inherit"/>
<path d="M12.1416 31.2479C12.1416 30.1152 13.1327 29.124 14.2655 29.124H23.7522C24.885 29.124 25.8761 30.1152 25.8761 31.2479V40.8762C25.8761 42.009 24.885 43.0001 23.7522 43.0001H14.1239C12.9912 43.0001 12 42.009 12 40.8762V31.2479H12.1416Z" fill="white" stroke="#191919" stroke-width="2" stroke-linecap="round" stroke-linejoin="round"/>
<path d="M30.124 31.2479C30.124 30.1152 31.1152 29.124 32.2479 29.124H41.8762C43.009 29.124 44.0001 30.1152 44.0001 31.2479V40.8762C44.0001 42.009 43.009 43.0001 41.8762 43.0001H32.2479C31.1152 43.0001 30.124 42.009 30.124 40.8762V31.2479Z" fill="white" stroke="#191919" stroke-width="2" stroke-linecap="round" stroke-linejoin="round"/>
<path d="M21.062 13.1239C21.062 11.9912 22.0532 11 23.1859 11H32.8142C33.947 11 34.9381 11.9912 34.9381 13.1239V22.7522C34.9381 23.885 33.947 24.8761 32.8142 24.8761H23.1859C22.0532 24.8761 21.062 23.885 21.062 22.7522V13.1239Z" fill="white" stroke="#191919" stroke-width="2" stroke-linecap="round" stroke-linejoin="round"/>
</svg>
